<svg xmlns="http://www.w3.org/2000/svg" width="68.985" height="68.987" viewBox="0 0 68.985 68.987">
  <path id="Write_copy_2" data-name="Write copy 2" d="M220.305,3738.992a4.312,4.312,0,0,1-4.312-4.312v-60.363a4.313,4.313,0,0,1,4.312-4.312h17.246a4.312,4.312,0,0,1,0,8.625H226.772a2.155,2.155,0,0,0-2.155,2.156v47.428a2.156,2.156,0,0,0,2.155,2.156H274.2a2.157,2.157,0,0,0,2.156-2.156v-10.78a4.311,4.311,0,0,1,8.623,0v17.247a4.311,4.311,0,0,1-4.312,4.312Zm12.934-17.247v-19.4l32.231-31.078a4.3,4.3,0,0,1,6.083,0l12.165,12.166a4.3,4.3,0,0,1,0,6.083l-31.077,32.23Zm8.624-15.737v7.116h7.115l25.642-26.6-6.162-6.162Z" transform="translate(-215.993 -3670.006)" fill="#fff"/>
</svg>
